<?xml version="1.0" encoding="UTF-8" standalone="no"?>
<!-- Created with Inkscape (http://www.inkscape.org/) -->

<svg
   version="1.1"
   id="svg2"
   width="128"
   height="128"
   viewBox="0 0 128 128"
   xmlns="http://www.w3.org/2000/svg"
   xmlns:svg="http://www.w3.org/2000/svg">
  <defs
     id="defs6" />
  <g
     id="g8">
    <path
       style="fill:#000000;stroke-width:1.33333"
       d="M 5.0677812,121 C 4.6667372,119.35 4.5053052,92.5 4.7090452,61.333333 L 5.0794812,4.6666667 H 64.412814 123.74615 v 6.0000003 6 l -4.67304,0.394328 -4.67305,0.394329 -5.11195,7.895064 c -2.81157,4.342285 -6.70633,12.264839 -8.65501,17.605672 l -3.543073,9.710607 -0.005,16.225914 -0.005,16.225915 3.089563,3.288679 3.08955,3.288678 -0.42288,5.152074 -0.42284,5.152073 -5.152073,0.42289 -5.15208,0.42288 -3.288678,-3.08955 -3.288679,-3.089553 -16.225915,0.0053 -16.225914,0.0053 -9.710607,3.543063 c -5.340833,1.94868 -13.285587,5.84631 -17.655005,8.66139 L 17.769471,114 l -0.0116,2.89095 c -0.0064,1.59002 -0.375854,3.84002 -0.82098,5 L 16.12751,124 H 10.962232 5.7969532 Z m 9.7393608,-5.00638 0.394329,-4.67305 7.895064,-5.11195 c 4.342286,-2.81157 12.264839,-6.708699 17.605672,-8.660284 L 50.412814,94 h 18.892581 18.892582 l 3.3218,3.120673 c 6.44251,6.052417 12.066133,0.428802 6.01371,-6.013706 l -3.12067,-3.321804 V 68.892581 50 l 3.54834,-9.710607 c 1.95158,-5.340833 5.848713,-13.263386 8.660283,-17.605672 l 5.11195,-7.895064 4.67305,-0.394329 L 121.07949,14 V 10.666667 7.3333333 H 64.412814 7.7461482 L 7.3977502,62.665821 c -0.376542,59.802499 -0.427646,59.057719 4.0091028,58.427699 l 3.005961,-0.42685 z m 0.272339,-24.596103 v -7.26915 L 19.90977,79.437251 C 29.371771,70.247872 42.548385,66.4179 57.162019,68.609349 l 6.200323,0.929796 5.858569,5.400242 c 3.222214,2.970132 5.85857,6.223824 5.85857,7.230426 V 84 h -9.12005 c -11.642328,0 -26.65467,3.843448 -38.694198,9.906457 -5.198883,2.618115 -10.067494,4.76021 -10.819134,4.76021 h -1.366618 z m 29.021914,-7.488374 c 5.539226,-1.416695 13.687596,-2.57581 18.107491,-2.57581 h 8.036171 L 66.392441,77.312068 C 56.53659,67.024777 35.763755,69.296556 22.576437,82.103917 l -4.83029,4.691116 v 3.955011 3.955009 l 8.141966,-4.11005 c 4.47808,-2.260528 12.674057,-5.269164 18.213282,-6.68586 z M 75.352201,68.808097 69.951959,62.949528 69.010177,56.669275 C 66.862811,42.349617 70.813602,28.801505 79.850065,19.496956 l 4.691116,-4.830289 h 7.269146 7.26916 v 1.366618 c 0,0.75164 -2.1421,5.620251 -4.76022,10.819134 -6.063005,12.039528 -9.906453,27.05187 -9.906453,38.694198 v 9.12005 h -1.830187 c -1.006602,0 -4.260294,-2.636356 -7.230426,-5.85857 z m 9.64243,-28.071724 c 1.27194,-4.361662 4.070008,-11.411662 6.217926,-15.666666 l 3.90531,-7.736374 -3.68586,0.02965 c -7.025066,0.05651 -16.514173,11.58927 -19.121386,23.239533 l -1.582698,7.072237 0.932579,6.218888 0.93258,6.218888 4.2432,4.841968 4.243199,4.841963 0.801265,-10.564897 c 0.440696,-5.810692 1.841944,-14.133528 3.113885,-18.49519 z M 15.351617,61.140101 15.944261,52.946871 20.825625,48.473435 25.706987,44 h 6.302444 6.302446 l 5.717134,5.610944 c 3.144426,3.086019 5.717136,6.302444 5.717136,7.147612 v 1.536668 l -7,0.822453 c -3.858532,0.453352 -11.27208,2.930199 -16.519296,5.519055 -12.09393,5.966867 -11.571902,6.134709 -10.875234,-3.496631 z m 10.586326,-0.440353 c 3.917791,-1.815139 9.722482,-3.690029 12.899314,-4.166425 l 5.776057,-0.866174 -4.361805,-4.500241 -4.361807,-4.500241 H 32.131678 28.373654 L 23.722967,51 l -4.650688,4.333333 -0.829732,4.333334 c -0.994058,5.191529 -1.215904,5.161748 7.695396,1.033081 z M 50.023758,43.616197 44.412814,37.899063 v -6.302446 -6.302444 l 4.473435,-4.881362 4.473436,-4.881364 8.19323,-0.592644 c 9.63134,-0.696668 9.463498,-1.218696 3.496631,10.875234 -2.588856,5.247216 -5.065703,12.660764 -5.519055,16.519296 l -0.822453,7 H 57.17137 c -0.845168,0 -4.061593,-2.57271 -7.147612,-5.717136 z M 61.805194,23.884259 c 4.379525,-8.58458 -3.235744,-8.877822 -10.669831,-0.410864 l -4.055882,4.619394 v 3.556796 3.556796 l 4.29562,4.431955 4.295618,4.431955 1.670414,-7.355014 c 0.918726,-4.045257 2.927554,-9.819216 4.464061,-12.831018 z M 15.079481,31.333333 V 24 h 1.750545 c 6.926544,0 10.649352,10.837553 4.488124,13.065483 -6.304477,2.279728 -6.238669,2.340192 -6.238669,-5.73215 z m 6.666666,1.353942 c 0,-0.198416 -0.9,-1.10769 -2,-2.020608 l -2,-1.659852 v 2.788078 2.78808 l 2,-0.767472 c 1.1,-0.422109 2,-0.929812 2,-1.128226 z m 6.249455,-11.093567 c -1.970533,-2.056793 -3.582788,-4.456793 -3.582788,-5.333333 v -1.593708 h 7.333333 c 8.072342,0 8.011878,-0.06581 5.73215,6.238669 l -1.601186,4.427997 h -2.14936 c -1.182148,0 -3.761616,-1.68283 -5.732149,-3.739625 z m 6.232713,-2.260375 0.767472,-2 h -2.78808 -2.788078 l 1.659852,2 c 0.912918,1.1 1.822192,2 2.020608,2 0.198414,0 0.706117,-0.9 1.128226,-2 z"
       id="path180" />
    <path
       style="fill:#000000;stroke-width:0.412815"
       d="M 15.480559,91.34255 V 84.125542 L 19.09343,80.642724 C 29.956285,70.170902 41.614096,66.710858 58.28636,69.010245 l 5.033238,0.694169 4.940102,4.778024 c 5.01516,4.850621 6.661883,6.962667 6.664661,8.547938 0.0017,0.866414 -0.145637,0.883553 -9.389995,1.093542 -7.488834,0.170113 -10.227892,0.394362 -13.519688,1.106869 -9.909298,2.144859 -16.034534,4.290194 -26.719948,9.358536 -4.024705,1.909012 -7.879365,3.583274 -8.565909,3.720583 l -1.248262,0.249653 z m 8.159067,0.741941 c 13.73758,-6.941488 25.261099,-9.992191 39.417851,-10.435369 4.030105,-0.126162 7.327464,-0.365483 7.327464,-0.531823 0,-0.166341 -1.456795,-1.694253 -3.237327,-3.395361 -5.692895,-5.438962 -10.562728,-7.160021 -19.261085,-6.807107 -10.214761,0.414437 -18.05502,3.97117 -26.528226,12.034524 l -3.81367,3.629202 v 4.081232 c 0,2.484417 0.163855,4.081232 0.418788,4.081232 0.230334,0 2.784626,-1.195439 5.676205,-2.65653 z"
       id="path443" />
    <path
       style="fill:#1666c0;fill-opacity:1;stroke:#0000ff;stroke-width:0.291904"
       d="M 9.3116582,120.79034 C 8.7210694,120.36025 8.3823658,119.40665 7.9844306,117.05359 7.660766,115.13971 7.6020264,105.26431 7.6588806,62.321551 7.6970346,33.503307 7.8036009,9.3664766 7.8956946,8.6841505 L 8.0631377,7.4435576 H 64.528717 120.9943 v 3.2109464 c 0,2.367699 -0.0958,3.214125 -0.36488,3.22305 -1.3356,0.04431 -9.00446,0.796752 -9.09101,0.891983 -0.0588,0.06467 -1.41995,2.15361 -3.02486,4.642094 -5.76925,8.945526 -8.28891,14.129246 -12.504019,25.724599 l -1.87042,5.145352 v 18.750053 18.750053 l 2.235983,2.375975 c 3.342096,3.551341 4.259496,5.964715 3.032386,7.977216 -1.60212,2.627541 -5.36677,1.478665 -9.634734,-2.940269 l -1.30137,-1.347404 H 69.420317 50.369255 l -5.335139,1.934575 c -11.678668,4.234799 -19.052677,8.026759 -29.743973,15.295339 -0.124194,0.0844 -0.390517,2.1553 -0.591829,4.60192 -0.201312,2.44662 -0.4409,4.56955 -0.532417,4.71763 -0.218542,0.35361 -4.4392208,0.69589 -4.8542388,0.39367 z M 18.8932,97.962238 c 1.168147,-0.466033 4.356971,-1.922644 7.086275,-3.236911 8.518724,-4.102095 14.692147,-6.383531 22.128751,-8.177842 7.440496,-1.795255 12.250263,-2.321252 21.292002,-2.328497 l 5.765108,-0.0046 -0.0029,-1.386545 c -0.0023,-1.212462 -0.190502,-1.636441 -1.497778,-3.376938 -0.822233,-1.094716 -3.437773,-3.80056 -5.812312,-6.01299 l -4.317342,-4.022598 -3.160938,-0.4802 c -13.12493,-1.993892 -21.877068,-1.003342 -30.858849,3.492549 -3.95346,1.978933 -6.676089,3.993545 -10.759058,7.96118 l -3.723073,3.618019 v 7.401365 7.401369 H 15.9012 c 0.477463,0 1.823871,-0.381303 2.992019,-0.84734 z M 84.506517,69.254276 c 2.91e-4,-8.778698 0.755202,-15.012844 2.75862,-22.783638 1.904798,-7.388274 3.615079,-11.96105 7.609403,-20.34521 3.613368,-7.584537 4.226942,-9.108658 4.226942,-10.499757 v -1.176412 l -7.370581,0.03048 -7.370582,0.03048 -3.609711,3.837249 c -4.017679,4.270931 -6.119804,7.174899 -8.056162,11.129142 -4.002112,8.172717 -5.175182,17.286017 -3.648861,28.347178 0.352427,2.554042 0.812191,4.972104 1.021697,5.373472 0.638753,1.223727 9.234874,9.824332 10.77436,10.779982 0.950872,0.590263 1.822766,0.896187 2.554161,0.896187 h 1.110468 z m -60.25675,-3.44898 c 9.773595,-4.588401 14.286406,-6.042764 21.311785,-6.868235 l 4.208117,-0.494444 V 57.19735 c 0,-1.631607 -1.057782,-2.998627 -6.820321,-8.814226 l -4.410927,-4.451539 h -6.522669 -6.522669 l -4.795066,4.412334 c -2.637287,2.426783 -4.851206,4.69269 -4.919822,5.035347 -0.216609,1.081722 -0.746856,9.861173 -0.745974,12.351309 10e-4,2.886045 0.369854,3.463744 2.016111,3.157828 0.577351,-0.107289 3.817997,-1.494684 7.201435,-3.083107 z M 58.818735,49.404789 c 2.1e-5,-0.04014 0.260916,-2.128218 0.579769,-4.640182 0.876439,-6.904714 2.661398,-12.329905 7.092934,-21.558222 3.175553,-6.612833 3.396921,-7.500304 2.085229,-8.359757 -0.703483,-0.460939 -1.184343,-0.46113 -7.662486,-0.003 -3.801544,0.268825 -7.064867,0.487108 -7.251823,0.485073 -0.186959,-0.002 -2.387187,2.217183 -4.889396,4.931598 l -4.549473,4.935299 v 6.379412 6.379411 l 4.597492,4.56422 c 5.609304,5.568706 7.384633,6.956156 8.903078,6.957899 0.602053,5.84e-4 1.094659,-0.03158 1.094676,-0.07172 z M 20.681474,37.484653 c 0.939235,-0.364198 2.085403,-1.03988 2.547039,-1.501518 2.82674,-2.82674 0.954071,-9.150057 -3.370441,-11.380745 -0.637467,-0.328821 -1.983875,-0.664067 -2.992018,-0.744991 l -1.832987,-0.147135 v 6.594075 c 0,4.551997 0.109826,6.835116 0.35464,7.372424 0.3364,0.738317 0.437738,0.77042 1.970353,0.624208 0.888643,-0.08478 2.384179,-0.452121 3.323414,-0.816318 z M 36.330697,24.59293 c 1.780186,-5.001945 2.638516,-7.692891 2.638516,-8.272012 0,-0.428357 -0.299762,-0.887111 -0.789437,-1.208145 -0.682767,-0.447629 -1.668822,-0.531226 -7.297604,-0.618687 l -6.50817,-0.101126 v 1.207395 c 0,1.801525 0.968181,3.388613 3.761218,6.165566 2.827714,2.811431 4.486815,3.775127 6.49985,3.775468 1.268309,2.15e-4 1.380287,-0.06242 1.695627,-0.948459 z"
       id="path5151" />
    <path
       style="fill:#1666c0;fill-opacity:1;stroke:#0000ff;stroke-width:0.291904"
       d="M 5.8580525,123.55538 C 5.1143472,121.1078 5.0407523,119.51294 4.897998,102.75029 4.8145954,92.956898 4.8439213,66.915393 4.9631666,44.880274 L 5.1799762,4.8164196 H 64.400706 123.62144 v 5.8380844 c 0,3.210946 -0.0328,5.843132 -0.073,5.849301 -0.0401,0.0062 -2.06632,0.189366 -4.50263,0.407102 -2.43631,0.217736 -4.55917,0.475931 -4.71746,0.573766 -0.64187,0.396694 -6.72639,10.218165 -8.69656,14.037745 -2.77187,5.37382 -3.85841,7.884643 -6.43132,14.861752 l -2.142337,5.809484 V 68.795817 85.39798 l 3.044767,3.214508 c 2.76373,2.917807 3.03378,3.301008 2.92577,4.151637 -0.0654,0.515421 -0.26075,2.710447 -0.43402,4.877836 -0.17327,2.167389 -0.40618,4.020299 -0.51757,4.117579 -0.17514,0.15296 -8.03407,0.85582 -9.478485,0.84771 -0.285357,-10e-4 -1.974968,-1.38216 -3.754694,-3.067911 L 85.608055,96.474344 H 69.340636 53.073216 l -5.811407,2.149974 C 35.962226,102.80468 31.196897,105.14129 22.297056,110.86543 l -4.558133,2.93167 -0.154691,2.94182 c -0.103438,1.96711 -0.382446,3.61882 -0.842095,4.98514 l -0.687405,2.04333 -5.041853,0.0799 c -3.8852837,0.0616 -5.0677689,-0.005 -5.1548265,-0.29191 z m 8.4591945,-2.86456 c 0.185759,-0.15416 0.426771,-1.54681 0.535582,-3.09478 0.108811,-1.54796 0.277675,-3.57832 0.375253,-4.51189 l 0.177415,-1.69741 4.265324,-2.73912 c 9.168094,-5.88758 14.585529,-8.54995 25.688768,-12.624627 l 5.133471,-1.883882 h 18.785254 18.785254 l 2.350839,2.183974 c 2.753348,2.557916 4.36128,3.429568 6.326493,3.429568 2.520581,0 3.77284,-1.488618 3.41968,-4.065142 -0.244197,-1.781649 -1.147921,-3.256008 -3.661511,-5.97349 L 94.431015,87.478209 V 68.935984 50.393755 l 2.303104,-6.223103 c 3.899591,-10.536882 6.420101,-15.706905 11.643701,-23.883309 1.69236,-2.649031 3.17319,-4.927031 3.29073,-5.062223 0.17641,-0.202903 7.35223,-1.039182 9.10682,-1.06132 0.45777,-0.0058 0.51083,-0.370306 0.51083,-3.509296 V 7.1516534 H 64.544839 7.8034737 L 7.6302376,8.9760547 C 7.5349578,9.9794755 7.3747563,32.999772 7.2742344,60.132269 7.0686952,115.61073 7.1542598,118.89042 8.8572576,120.80962 c 0.4259711,0.48005 0.7603848,0.5222 2.8029624,0.35329 1.275606,-0.10548 2.471269,-0.31792 2.657027,-0.47209 z"
       id="path5879" />
    <path
       style="fill:#1666c0;fill-opacity:1;stroke:#0000ff;stroke-width:0.291904"
       d="M 81.441277,73.951242 C 80.799088,73.618775 78.021581,71.064102 75.269039,68.27419 L 70.264417,63.201621 69.807924,60.645279 C 68.9285,55.720545 68.663597,52.058338 68.831729,47.149657 c 0.238118,-6.951952 1.242386,-11.250248 3.991453,-17.083522 1.893029,-4.016842 3.748744,-6.620353 8.062391,-11.311289 l 3.690865,-4.013683 h 7.154533 7.154531 l -0.14244,1.240593 c -0.140511,1.223781 -0.964136,3.153054 -5.265056,12.332953 -3.31454,7.074567 -5.425972,13.136279 -7.093316,20.364208 -1.451004,6.290095 -1.915808,10.383649 -2.087656,18.386077 l -0.161413,7.516534 -0.763363,-0.0129 c -0.419851,-0.0071 -1.288792,-0.284919 -1.930981,-0.617384 z m -0.02201,-6.740296 C 83.01826,45.541224 84.86354,38.246344 92.715818,22.552673 c 1.425,-2.848025 2.590909,-5.264677 2.590909,-5.370337 0,-0.377532 -5.603104,0.209974 -6.975369,0.731394 -4.366984,1.659323 -9.724964,7.437142 -13.028868,14.049782 -1.714229,3.430962 -2.448006,5.617395 -3.633266,10.826015 l -1.101828,4.841979 0.948868,6.303368 0.948869,6.303365 4.196168,4.82454 c 2.307892,2.6535 4.277742,4.829883 4.377445,4.836413 0.0997,0.0065 0.270935,-1.203183 0.380517,-2.688246 z"
       id="path5881" />
    <path
       style="fill:#1666c0;fill-opacity:1;stroke:#0000ff;stroke-width:0.291904"
       d="m 56.05077,48.547388 c -0.639352,-0.336972 -3.496364,-2.914804 -6.348917,-5.728521 l -5.18646,-5.115846 V 31.58316 25.463297 l 2.554162,-2.799574 c 1.404789,-1.539766 3.47366,-3.750914 4.597492,-4.913663 l 2.043329,-2.114089 6.206533,-0.447404 c 7.768172,-0.559976 7.746822,-0.560221 8.559942,0.0982 0.638444,0.51698 0.653885,0.612704 0.294307,1.824401 -0.208719,0.703336 -1.531602,3.708896 -2.93974,6.679022 -4.198057,8.854787 -6.022856,14.525917 -6.715711,20.871151 -0.469367,4.298521 -0.533511,4.526588 -1.268889,4.511614 -0.348475,-0.0071 -1.156697,-0.288603 -1.796048,-0.625571 z m 0.709259,-8.629486 c 1.149896,-5.148743 3.263523,-11.729572 4.992379,-15.5439 2.048725,-4.520045 1.859172,-6.795852 -0.598474,-7.185393 -2.592328,-0.410888 -6.655948,2.278272 -11.299029,7.477297 l -2.997937,3.356899 -0.0032,3.611761 -0.0032,3.611761 4.305587,4.46803 c 2.368073,2.457417 4.381331,4.47728 4.473906,4.488582 0.09258,0.0113 0.601034,-1.916964 1.129909,-4.285037 z"
       id="path5883" />
    <path
       style="fill:#1666c0;fill-opacity:1;stroke:#0000ff;stroke-width:0.0729761"
       d="m 33.058153,25.11265 c -1.399638,-0.457629 -2.783061,-1.47844 -4.954023,-3.65551 -2.194081,-2.200256 -3.219865,-3.692346 -3.470496,-5.048132 -0.04246,-0.229663 -0.07719,-0.710706 -0.07719,-1.068985 v -0.651415 l 5.527937,0.03731 c 6.687442,0.04513 7.364994,0.09803 8.103016,0.632654 0.321045,0.232563 0.599378,0.684266 0.599378,0.97272 0,0.650653 -2.615404,8.433125 -2.963228,8.817466 -0.111284,0.122969 -0.236584,0.137103 -1.189474,0.134182 -0.906664,-0.0028 -1.141068,-0.02811 -1.575918,-0.170288 z m 0.443716,-4.172761 c 0.142706,-0.223084 0.350282,-0.608945 0.461282,-0.857469 0.330487,-0.739942 1.054187,-2.676637 1.014887,-2.715937 -0.02004,-0.02003 -1.285631,-0.02782 -2.812436,-0.0173 l -2.776011,0.01912 1.186462,1.423033 c 1.328707,1.59364 2.27304,2.554162 2.511114,2.554162 0.108593,0 0.233203,-0.121876 0.414702,-0.405607 z"
       id="path7337" />
    <path
       style="fill:#1666c0;fill-opacity:1;stroke:#0000ff;stroke-width:0.0729761"
       d="m 15.893519,38.027188 c -0.566314,-0.476523 -0.611177,-1.03402 -0.656783,-8.161738 l -0.03724,-5.81984 h 0.948632 c 1.070404,0 1.835727,0.118636 2.871958,0.445193 1.726835,0.544194 3.424311,2.130725 4.403628,4.11581 0.689247,1.397113 0.935438,2.388217 0.933554,3.758267 -0.0039,2.829526 -1.392008,4.287195 -5.110874,5.366947 -0.726178,0.210842 -1.657104,0.374738 -2.500651,0.440259 -0.600267,0.04662 -0.630779,0.04144 -0.852226,-0.144898 z m 3.016914,-3.841944 c 1.305994,-0.498377 2.570827,-1.09668 2.759758,-1.305446 0.188854,-0.208681 0.09832,-0.374891 -0.567015,-1.04094 -0.613846,-0.614508 -3.231791,-2.830876 -3.343794,-2.830876 -0.03448,0 -0.06269,1.26431 -0.06269,2.809578 0,1.545268 0.01255,2.809578 0.02788,2.809578 0.01533,0 0.548971,-0.198852 1.185861,-0.441894 z"
       id="path7339" />
    <path
       style="fill:#1666c0;fill-opacity:1;stroke:#0000ff;stroke-width:0.206407"
       d="m 15.591025,68.231232 c -0.312166,-0.583287 -0.261411,-5.582436 0.106376,-10.477569 0.275192,-3.662731 0.379995,-4.343906 0.747813,-4.860459 0.235273,-0.330409 2.390115,-2.404311 4.788539,-4.608669 l 4.360771,-4.007925 6.408947,-0.0011 6.408948,-0.0011 4.439746,4.489362 c 5.945248,6.011688 6.58242,6.841396 6.58242,8.571439 v 0.903263 l -3.250917,0.361506 c -7.38297,0.820996 -12.825946,2.495382 -21.229494,6.530689 -7.183427,3.449415 -8.876416,4.010043 -9.363149,3.100574 z m 8.558647,-6.560953 c 7.149427,-3.233466 11.413148,-4.567629 17.338226,-5.425311 1.702861,-0.246497 3.132532,-0.484142 3.177046,-0.5281 0.04452,-0.04396 -1.893813,-2.125638 -4.307395,-4.625956 l -4.388332,-4.546031 -3.845698,0.0086 -3.845698,0.0086 -4.644168,4.329059 -4.644167,4.329058 -0.697936,3.693366 c -0.422509,2.235852 -0.642509,3.914203 -0.557484,4.25297 0.248421,0.989786 1.632536,0.666982 6.415606,-1.496255 z"
       id="path7341" />
    <path
       style="fill:#1666c0;fill-opacity:1;stroke:#0000ff;stroke-width:0.206407"
       d="m 15.377355,91.261918 v -7.297642 l 2.941306,-2.786671 c 3.941075,-3.733879 4.839535,-4.488124 7.368381,-6.185658 2.706775,-1.816973 6.400168,-3.614492 9.608632,-4.676379 7.115311,-2.354913 14.221775,-2.694586 24.623687,-1.176957 l 3.363721,0.490764 2.20928,2.01831 c 3.909038,3.571137 7.598833,7.370779 8.476085,8.728417 0.729956,1.129681 0.854255,1.482575 0.854255,2.425287 v 1.10324 l -3.663733,0.007 c -5.748992,0.01101 -12.29138,0.356947 -15.222549,0.804908 -9.95639,1.521602 -20.290815,4.834854 -29.556522,9.475921 -5.342759,2.676118 -9.417215,4.367083 -10.522677,4.367083 h -0.479866 z m 7.827548,0.811835 c 9.573901,-4.748572 18.555222,-7.855029 26.880906,-9.297561 5.84517,-1.012751 7.560944,-1.172509 13.694094,-1.27507 3.292199,-0.05505 6.119847,-0.144492 6.28366,-0.198752 0.382149,-0.126578 -4.548609,-5.124069 -6.28366,-6.368704 -4.34047,-3.113625 -10.107777,-4.512549 -16.670275,-4.04356 -5.034315,0.359777 -9.365092,1.518079 -13.951185,3.73136 -4.580254,2.210463 -7.079752,4.038886 -12.362892,9.04365 l -3.147714,2.981856 v 3.995422 c 0,2.351949 0.0797,3.995423 0.193747,3.995423 0.10656,0 2.520054,-1.153828 5.363319,-2.564064 z"
       id="path7343" />
  </g>
</svg>
